<svg xmlns="http://www.w3.org/2000/svg" version="1.1" xmlns:xlink="http://www.w3.org/1999/xlink" xmlns:svgjs="http://svgjs.dev/svgjs" width="1000" height="1000" viewBox="0 0 1000 1000"><rect width="1000" height="1000" fill="#000000"></rect><g transform="matrix(0.7,0,0,0.7,149.57575757575756,442.5755463254741)"><svg viewBox="0 0 396 65" data-background-color="#ffffff" preserveAspectRatio="xMidYMid meet" height="164" width="1000" xmlns="http://www.w3.org/2000/svg" xmlns:xlink="http://www.w3.org/1999/xlink"><g id="tight-bounds" transform="matrix(1,0,0,1,0.2400000000000091,0.01384572163925668)"><svg viewBox="0 0 395.52 64.97230855672149" height="64.97230855672149" width="395.52"><g><svg viewBox="0 0 489.70594475954715 80.44429041509433" height="64.97230855672149" width="395.52"><g transform="matrix(1,0,0,1,0,11.117843320754716)"><svg viewBox="0 0 395.52 58.2086037735849" height="58.2086037735849" width="395.52"><g><svg viewBox="0 0 395.52 58.2086037735849" height="58.2086037735849" width="395.52"><g><svg viewBox="0 0 395.52 58.2086037735849" height="58.2086037735849" width="395.52"><g transform="matrix(1,0,0,1,0,0)"><svg width="395.52" viewBox="1 -36.20000076293945 251.74000549316406 37.04999923706055" height="58.2086037735849" data-palette-color="#6b7280"><path d="M11.1 0L6.7-0.15 2.7 0.05Q1.75 0.05 1.5-0.2 1.25-0.45 1.25-0.85 1.25-1.25 1.55-1.38 1.85-1.5 2.3-1.5L2.3-1.5Q3.55-1.6 4.42-2.27 5.3-2.95 5.88-3.5 6.45-4.05 7.08-4.83 7.7-5.6 8.2-6.2 8.7-6.8 9.45-7.83 10.2-8.85 10.58-9.38 10.95-9.9 11.78-11.08 12.6-12.25 13.13-12.98 13.65-13.7 14.7-15.08 15.75-16.45 16.18-17.05 16.6-17.65 16.6-17.8 16.6-17.95 16.4-18.28 16.2-18.6 15.65-19.38 15.1-20.15 14.4-21.1L14.4-21.1Q11.65-24.9 9.8-27.55L9.8-27.55Q5.8-33.45 3-34.05L3-34.05Q1.9-34.05 1.45-34.4 1-34.75 1-35.1 1-35.45 1.35-35.58 1.7-35.7 3.1-35.7L3.1-35.7 7.55-35.5 12.8-35.6Q13.9-35.6 13.9-35.15 13.9-34.7 13.55-34.5 13.2-34.3 12.8-34.3L12.8-34.3Q11.65-34.2 11.65-33.23 11.65-32.25 14.35-28.35L14.35-28.35Q18.4-22.2 18.8-21.8 19.2-21.4 19.35-21.4L19.35-21.4Q19.75-21.4 20.35-22.28 20.95-23.15 21.95-24.58 22.95-26 23.73-27.13 24.5-28.25 25.3-29.5L25.3-29.5Q27.1-32.1 27.1-32.83 27.1-33.55 26.68-33.93 26.25-34.3 25.8-34.35L25.8-34.35Q24.45-34.5 24.45-35.2L24.45-35.2Q24.45-35.7 25.2-35.7L25.2-35.7 29.25-35.5Q32.05-35.5 32.93-35.6 33.8-35.7 33.95-35.7L33.95-35.7Q34.75-35.7 34.75-35.2 34.75-34.7 34.3-34.52 33.85-34.35 32.85-34 31.85-33.65 30.95-33.02 30.05-32.4 28.35-30.1L28.35-30.1Q20.6-19.7 20.6-19.6L20.6-19.6Q20.6-19.25 22.68-16.3 24.75-13.35 26.9-10.25L26.9-10.25Q31.5-3.55 33.4-2L33.4-2Q33.55-1.85 34.4-1.7L34.4-1.7Q36.55-1.3 36.55-0.65L36.55-0.65Q36.55-0.4 36.5-0.3L36.5-0.3Q36.3 0.05 34.95 0.05L34.95 0.05 29.6-0.3Q27.1-0.3 25.9-0.15 24.7 0 24.5 0L24.5 0Q23.85 0 23.85-0.63 23.85-1.25 25.13-1.55 26.4-1.85 26.4-2.8L26.4-2.8Q26.4-3.75 23.5-8L23.5-8Q20-13 19.05-14.5 18.1-16 17.75-16L17.75-16Q17.65-16 16.63-14.35 15.6-12.7 13.53-9.93 11.45-7.15 10.4-5.45 9.35-3.75 9.35-2.75L9.35-2.75Q9.35-1.4 12.05-1.4L12.05-1.4Q12.65-1.4 12.65-0.55L12.65-0.55Q12.65 0 11.1 0L11.1 0ZM43.5-17.25L43.5-20.1 43.55-25.5 43.55-27.8Q43.55-30 43.37-31.33 43.2-32.65 42.02-33.3 40.85-33.95 39.7-34 38.55-34.05 38.55-34.77 38.55-35.5 39.95-35.5L39.95-35.5 45.6-35.3 50-35.4Q51.35-35.4 51.35-34.7L51.35-34.7Q51.35-34.3 49.05-33.35L49.05-33.35Q47.45-32.7 47.45-27.6L47.45-27.6 47.3-9.1Q47.3-4.9 48.47-3.2 49.65-1.5 50.95-1.5L50.95-1.5 51.95-1.45Q52.3-1.45 52.65-1.28 53-1.1 53-0.7L53-0.7Q53 0 51.75 0L51.75 0 47-0.2 41.5 0.05Q39.25 0.05 39.25-0.7L39.25-0.7Q39.25-1.4 40.8-1.6L40.8-1.6Q41.4-1.65 42.05-2.23 42.7-2.8 42.87-3.53 43.05-4.25 43.27-9.58 43.5-14.9 43.5-17.25L43.5-17.25ZM66.5 0.2L61.15 0.1 56.9 0.2Q55.8 0.2 55.8-0.6L55.8-0.6Q55.8-1.05 56.45-1.18 57.1-1.3 58.05-1.95 59-2.6 59.4-4.08 59.8-5.55 60.25-13.7 60.7-21.85 60.7-25.55 60.7-29.25 59.5-31.38 58.3-33.5 55.6-33.8L55.6-33.8Q54.95-33.85 54.95-34.55L54.95-34.55Q54.95-34.85 55.3-35.13 55.65-35.4 56.2-35.4L56.2-35.4 58.1-35.35 60.55-35.45Q61-35.45 61.6-35.18 62.2-34.9 62.3-34.68 62.4-34.45 62.85-33.93 63.3-33.4 64.05-32.55 64.8-31.7 65.4-30.9L65.4-30.9Q72.2-22.05 83.6-9.55L83.6-9.55Q83.9-9.2 84.32-8.75 84.75-8.3 84.92-8.08 85.1-7.85 85.3-7.65L85.3-7.65Q85.65-7.3 85.85-7.3L85.85-7.3Q86.34-7.3 86.34-10.4L86.34-10.4 86.34-16.25 86.25-26.5 86.25-26.85Q86.25-31.45 84.65-32.7L84.65-32.7Q84.05-33.15 83.65-33.27 83.25-33.4 82.5-33.55L82.5-33.55Q80.45-33.95 80.45-34.68 80.45-35.4 81.4-35.4L81.4-35.4 86.15-35.35Q86.15-35.35 90.65-35.45L90.65-35.45Q91.5-35.45 91.82-35.27 92.15-35.1 92.15-34.75 92.15-34.4 91.84-34.2L91.84-34.2Q91.45-33.95 90.4-33.6L90.4-33.6Q88.75-32.7 88.75-27.95L88.75-27.95 88.75-26.05 88.2-1.3 88.2-0.3Q88.2 0.85 87.5 0.85L87.5 0.85Q87.05 0.85 86.7 0.5L86.7 0.5Q70.1-18.75 66.87-22.38 63.65-26 63.3-26L63.3-26Q62.8-26 62.8-21.93 62.8-17.85 62.6-12.38 62.4-6.9 62.4-6.4L62.4-6.4Q62.4-4.15 63.17-2.98 63.95-1.8 64.85-1.65 65.75-1.5 66.52-1.33 67.3-1.15 67.3-0.63 67.3-0.1 67.12 0.05 66.95 0.2 66.5 0.2L66.5 0.2ZM122.19-18.5L127.74-18.25 131.74-18.3 132.49-18.3Q133.29-18.3 133.29-17.85L133.29-17.85Q133.29-17.5 132.02-16.95 130.74-16.4 130.59-15.55L130.59-15.55Q130.24-13.4 130.24-10.93 130.24-8.45 130.29-7.3 130.34-6.15 130.37-5.68 130.39-5.2 130.44-4.85 130.49-4.5 130.49-4.3 130.49-4.1 130.12-3.98 129.74-3.85 128.89-3.63 128.04-3.4 127.34-2.98 126.64-2.55 126.29-2.35 125.94-2.15 125.37-1.85 124.79-1.55 124.19-1.25 123.59-0.95 122.84-0.63 122.09-0.3 121.29-0.05 120.49 0.2 119.64 0.4L119.64 0.4Q117.74 0.85 116.04 0.85L116.04 0.85Q110.59 0.85 106.57-0.63 102.54-2.1 100.34-4.6L100.34-4.6Q96.04-9.55 96.04-16.45L96.04-16.45Q96.04-21.9 98.22-26.25 100.39-30.6 104.89-33.27 109.39-35.95 115.59-35.95L115.59-35.95Q121.54-35.95 125.89-33.7L125.89-33.7Q126.89-33.15 127.42-32.77 127.94-32.4 128.07-32.4 128.19-32.4 128.72-32.77 129.24-33.15 129.44-33.15L129.44-33.15Q130.19-33.15 130.22-31.93 130.24-30.7 130.42-29.1 130.59-27.5 130.74-26.45 130.89-25.4 130.89-25.2L130.89-25.2Q130.89-24.35 130.29-24.35 129.69-24.35 129.44-24.95L129.44-24.95Q127.69-28.75 123.59-31.38 119.49-34 115.14-34L115.14-34Q108.89-34 104.82-30.08 100.74-26.15 100.74-19.2L100.74-19.2Q100.74-14.6 102.44-10.55 104.14-6.5 107.62-3.85 111.09-1.2 115.27-1.2 119.44-1.2 122.57-2.95 125.69-4.7 126.04-6.95L126.04-6.95Q126.19-8.15 126.19-13.25L126.19-13.25Q126.19-15.2 125.47-15.93 124.74-16.65 123.19-16.82 121.64-17 121.47-17.32 121.29-17.65 121.29-17.95L121.29-17.95Q121.29-18.5 122.19-18.5L122.19-18.5ZM147.29 0.2L141.94 0.1 137.69 0.2Q136.59 0.2 136.59-0.6L136.59-0.6Q136.59-1.05 137.24-1.18 137.89-1.3 138.84-1.95 139.79-2.6 140.19-4.08 140.59-5.55 141.04-13.7 141.49-21.85 141.49-25.55 141.49-29.25 140.29-31.38 139.09-33.5 136.39-33.8L136.39-33.8Q135.74-33.85 135.74-34.55L135.74-34.55Q135.74-34.85 136.09-35.13 136.44-35.4 136.99-35.4L136.99-35.4 138.89-35.35 141.34-35.45Q141.79-35.45 142.39-35.18 142.99-34.9 143.09-34.68 143.19-34.45 143.64-33.93 144.09-33.4 144.84-32.55 145.59-31.7 146.19-30.9L146.19-30.9Q152.99-22.05 164.39-9.55L164.39-9.55Q164.69-9.2 165.12-8.75 165.54-8.3 165.72-8.08 165.89-7.85 166.09-7.65L166.09-7.65Q166.44-7.3 166.64-7.3L166.64-7.3Q167.14-7.3 167.14-10.4L167.14-10.4 167.14-16.25 167.04-26.5 167.04-26.85Q167.04-31.45 165.44-32.7L165.44-32.7Q164.84-33.15 164.44-33.27 164.04-33.4 163.29-33.55L163.29-33.55Q161.24-33.95 161.24-34.68 161.24-35.4 162.19-35.4L162.19-35.4 166.94-35.35Q166.94-35.35 171.44-35.45L171.44-35.45Q172.29-35.45 172.62-35.27 172.94-35.1 172.94-34.75 172.94-34.4 172.64-34.2L172.64-34.2Q172.24-33.95 171.19-33.6L171.19-33.6Q169.54-32.7 169.54-27.95L169.54-27.95 169.54-26.05 168.99-1.3 168.99-0.3Q168.99 0.85 168.29 0.85L168.29 0.85Q167.84 0.85 167.49 0.5L167.49 0.5Q150.89-18.75 147.67-22.38 144.44-26 144.09-26L144.09-26Q143.59-26 143.59-21.93 143.59-17.85 143.39-12.38 143.19-6.9 143.19-6.4L143.19-6.4Q143.19-4.15 143.97-2.98 144.74-1.8 145.64-1.65 146.54-1.5 147.31-1.33 148.09-1.15 148.09-0.63 148.09-0.1 147.92 0.05 147.74 0.2 147.29 0.2L147.29 0.2ZM184.84 0.05L180.69 0 176.39 0.2Q174.94 0.2 174.94-0.4L174.94-0.4Q174.94-1.1 175.69-1.35L175.69-1.35Q177.29-1.95 178.49-4.03 179.69-6.1 184.51-16.57 189.34-27.05 193.09-35.05L193.09-35.05Q193.44-35.8 193.71-36 193.99-36.2 194.51-36.2 195.04-36.2 195.19-36 195.34-35.8 195.74-34.65 196.14-33.5 196.36-32.9 196.59-32.3 197.09-30.95 197.59-29.6 198.69-26.9 199.79-24.2 203.71-15.08 207.64-5.95 208.24-4.73 208.84-3.5 209.89-2.63 210.94-1.75 211.71-1.68 212.49-1.6 213.01-1.43 213.54-1.25 213.54-0.65L213.54-0.65Q213.54 0.1 212.19 0.1L212.19 0.1 207.69-0.2 203.04 0Q201.49 0 201.06-0.13 200.64-0.25 200.64-0.65 200.64-1.05 201.04-1.28 201.44-1.5 201.89-1.58 202.34-1.65 202.74-2.02 203.14-2.4 203.14-3.28 203.14-4.15 201.89-7.55 200.64-10.95 199.79-12.55L199.79-12.55Q199.34-13.4 197.74-13.4L197.74-13.4 191.69-13.3 189.04-13.3Q186.79-13.3 186.21-13.05 185.64-12.8 185.26-12 184.89-11.2 184.19-9.78 183.49-8.35 183.24-7.8 182.99-7.25 182.64-6.4L182.64-6.4Q181.99-4.9 181.99-3.9 181.99-2.9 182.56-2.3 183.14-1.7 183.84-1.6L183.84-1.6Q185.69-1.45 185.69-0.65L185.69-0.65Q185.69-0.3 185.54-0.13 185.39 0.05 184.84 0.05L184.84 0.05ZM192.74-28.5Q192.29-28.5 189.89-22.98 187.49-17.45 187.49-16.85 187.49-16.25 187.94-16.1 188.39-15.95 190.04-15.95L190.04-15.95 191.59-15.95 196.34-16Q198.29-16 198.29-16.73 198.29-17.45 195.84-22.98 193.39-28.5 192.74-28.5L192.74-28.5ZM227.09 0.2L221.74 0.1 217.49 0.2Q216.39 0.2 216.39-0.6L216.39-0.6Q216.39-1.05 217.04-1.18 217.69-1.3 218.64-1.95 219.59-2.6 219.99-4.08 220.39-5.55 220.84-13.7 221.29-21.85 221.29-25.55 221.29-29.25 220.09-31.38 218.89-33.5 216.19-33.8L216.19-33.8Q215.54-33.85 215.54-34.55L215.54-34.55Q215.54-34.85 215.89-35.13 216.24-35.4 216.79-35.4L216.79-35.4 218.69-35.35 221.14-35.45Q221.59-35.45 222.19-35.18 222.79-34.9 222.89-34.68 222.99-34.45 223.44-33.93 223.89-33.4 224.64-32.55 225.39-31.7 225.99-30.9L225.99-30.9Q232.79-22.05 244.19-9.55L244.19-9.55Q244.49-9.2 244.91-8.75 245.34-8.3 245.51-8.08 245.69-7.85 245.89-7.65L245.89-7.65Q246.24-7.3 246.44-7.3L246.44-7.3Q246.94-7.3 246.94-10.4L246.94-10.4 246.94-16.25 246.84-26.5 246.84-26.85Q246.84-31.45 245.24-32.7L245.24-32.7Q244.64-33.15 244.24-33.27 243.84-33.4 243.09-33.55L243.09-33.55Q241.04-33.95 241.04-34.68 241.04-35.4 241.99-35.4L241.99-35.4 246.74-35.35Q246.74-35.35 251.24-35.45L251.24-35.45Q252.09-35.45 252.41-35.27 252.74-35.1 252.74-34.75 252.74-34.4 252.44-34.2L252.44-34.2Q252.04-33.95 250.99-33.6L250.99-33.6Q249.34-32.7 249.34-27.95L249.34-27.95 249.34-26.05 248.79-1.3 248.79-0.3Q248.79 0.85 248.09 0.85L248.09 0.85Q247.64 0.85 247.29 0.5L247.29 0.5Q230.69-18.75 227.46-22.38 224.24-26 223.89-26L223.89-26Q223.39-26 223.39-21.93 223.39-17.85 223.19-12.38 222.99-6.9 222.99-6.4L222.99-6.4Q222.99-4.15 223.76-2.98 224.54-1.8 225.44-1.65 226.34-1.5 227.11-1.33 227.89-1.15 227.89-0.63 227.89-0.1 227.71 0.05 227.54 0.2 227.09 0.2L227.09 0.2Z" opacity="1" transform="matrix(1,0,0,1,0,0)" fill="#ffffff" class="undefined-text-0" data-fill-palette-color="primary" id="text-0"></path></svg></g></svg></g></svg></g></svg></g><g transform="matrix(1,0,0,1,409.26165434445284,0)"><svg viewBox="0 0 80.44429041509433 80.44429041509433" height="80.44429041509433" width="80.44429041509433"><g data-palette-color="#000000"><rect width="21.98810604679245" height="80.44429041509433" fill="#ffffff" stroke="transparent" data-fill-palette-color="accent" x="0" fill-opacity="1"></rect><rect width="21.98810604679245" height="80.44429041509433" fill="#ffffff" stroke="transparent" data-fill-palette-color="accent" x="26.814763471698107" fill-opacity="0.75"></rect><rect width="21.98810604679245" height="80.44429041509433" fill="#ffffff" stroke="transparent" data-fill-palette-color="accent" x="53.629526943396215" fill-opacity="0.5"></rect></g></svg></g></svg></g><defs></defs></svg><rect width="395.52" height="64.97230855672149" fill="none" stroke="none" visibility="hidden"></rect></g></svg></g></svg>